<?xml version="1.0" standalone="no"?>
<!DOCTYPE svg PUBLIC "-//W3C//DTD SVG 20010904//EN"
 "http://www.w3.org/TR/2001/REC-SVG-20010904/DTD/svg10.dtd">
<svg version="1.0" xmlns="http://www.w3.org/2000/svg"
 width="231.000000pt" height="140.000000pt" viewBox="0 0 231.000000 140.000000"
 preserveAspectRatio="xMidYMid meet">
<metadata>
Created by potrace 1.16, written by Peter Selinger 2001-2019
</metadata>
<g transform="translate(0.000000,140.000000) scale(0.100000,-0.100000)"
fill="#000000" stroke="none">
<path d="M487 1383 c-15 -15 -69 -38 -187 -80 -52 -18 -80 -40 -80 -62 0 -8
-20 -74 -44 -145 -52 -153 -66 -223 -66 -322 0 -40 -4 -76 -10 -79 -5 -3 -10
-23 -10 -43 0 -41 25 -247 43 -357 14 -89 60 -201 82 -199 13 2 14 -6 9 -47
-4 -27 -3 -49 0 -49 15 0 119 108 161 166 24 33 63 99 86 147 64 133 73 215
63 572 -4 160 -8 341 -8 403 -1 115 -6 128 -39 95z"/>
<path d="M788 1343 c2 -39 -10 -126 -37 -262 -65 -328 -77 -427 -62 -531 25
-179 86 -326 165 -397 63 -56 181 -133 205 -133 15 0 19 11 24 58 4 32 20 90
36 129 18 41 35 105 41 150 5 43 15 103 21 133 14 68 14 71 0 145 -5 33 -17
149 -26 258 -17 209 -25 241 -72 322 -27 46 -34 51 -89 66 -76 21 -147 62
-164 94 -7 14 -20 25 -29 25 -13 0 -15 -10 -13 -57z"/>
<path d="M593 1308 c-4 -7 -8 -42 -9 -78 0 -36 -6 -141 -12 -235 -6 -93 -12
-306 -13 -471 -1 -300 -1 -302 22 -333 12 -17 26 -31 30 -31 4 0 18 15 33 34
26 35 26 35 26 223 0 103 -5 327 -10 498 -8 275 -8 312 6 333 13 20 14 28 3
48 -14 26 -62 34 -76 12z"/>
<path d="M1384 851 c-75 -35 -94 -57 -41 -47 l36 7 -60 -127 c-45 -94 -57
-129 -49 -138 8 -8 16 -5 29 10 l17 21 21 -23 c58 -65 163 12 151 110 -3 29 1
37 24 50 17 11 32 32 39 55 31 104 -43 141 -167 82z"/>
<path d="M2168 844 c-15 -20 -35 -56 -44 -80 -11 -28 -23 -44 -33 -44 -10 0
-32 -11 -51 -25 -38 -28 -81 -32 -100 -10 -7 8 -25 15 -40 15 -30 0 -90 -43
-90 -65 0 -7 -7 -18 -16 -26 -14 -12 -15 -8 -9 34 7 44 6 47 -15 47 -12 0 -29
-4 -40 -10 -14 -7 -17 -6 -16 8 0 10 -7 18 -20 20 -17 2 -25 -6 -40 -42 -13
-32 -30 -51 -56 -66 -44 -25 -45 -23 -18 30 26 52 26 70 -3 70 -18 0 -29 -11
-46 -48 -40 -85 -13 -145 49 -109 26 16 30 16 30 3 0 -28 28 -17 66 24 21 22
41 40 46 40 4 0 8 -13 8 -30 0 -33 16 -38 51 -19 16 8 23 7 32 -5 7 -9 26 -18
43 -22 26 -5 35 -1 62 30 18 20 32 43 32 51 0 8 6 15 14 15 12 0 12 -7 5 -36
-12 -41 1 -64 35 -64 28 0 39 9 61 47 l19 32 18 -29 c10 -17 26 -30 37 -30 23
0 81 66 81 92 0 27 -16 22 -40 -12 -12 -16 -28 -30 -36 -30 -23 0 -17 63 11
104 13 20 34 58 46 85 35 82 14 116 -33 55z"/>
</g>
</svg>
