<?xml version="1.0" standalone="no"?>
<!DOCTYPE svg PUBLIC "-//W3C//DTD SVG 20010904//EN"
 "http://www.w3.org/TR/2001/REC-SVG-20010904/DTD/svg10.dtd">
<svg version="1.0" xmlns="http://www.w3.org/2000/svg"
 width="231.000000pt" height="103.000000pt" viewBox="0 0 231.000000 103.000000"
 preserveAspectRatio="xMidYMid meet">
<metadata>
Created by potrace 1.16, written by Peter Selinger 2001-2019
</metadata>
<g transform="translate(0.000000,103.000000) scale(0.100000,-0.100000)"
fill="#000000" stroke="none">
<path d="M1102 1023 c-20 -8 -67 -83 -90 -143 -20 -54 -21 -55 -54 -50 -18 3
-68 5 -110 5 -71 0 -80 -2 -105 -28 -51 -51 -33 -139 48 -230 l38 -44 -20 -19
c-36 -33 -78 -100 -90 -146 -15 -56 1 -95 51 -121 33 -17 108 -19 203 -5 14 2
22 -8 34 -41 68 -199 192 -224 277 -56 13 28 28 63 32 78 5 23 11 28 28 23 11
-4 51 -9 87 -13 76 -7 131 8 154 40 34 49 7 148 -60 221 l-34 38 40 50 c48 62
69 108 69 157 0 76 -56 108 -169 98 -36 -4 -76 -9 -87 -13 -17 -5 -23 0 -28
23 -12 44 -55 125 -84 156 -21 22 -34 27 -71 26 -25 0 -52 -3 -59 -6z m104
-58 c27 -29 74 -126 74 -153 0 -4 -28 -17 -62 -29 l-62 -21 -60 23 c-69 25
-69 27 -31 112 27 59 66 103 91 103 9 0 31 -16 50 -35z m-273 -174 c21 -5 40
-11 42 -13 2 -2 1 -31 -2 -65 -6 -62 -6 -63 -61 -105 l-56 -41 -34 39 c-39 45
-72 105 -72 132 0 19 23 45 50 55 24 9 91 7 133 -2z m596 -6 c40 -20 44 -40
22 -91 -21 -46 -80 -124 -95 -124 -4 0 -23 13 -42 29 -18 16 -40 34 -50 39
-11 6 -18 29 -23 75 l-7 67 41 9 c62 14 123 12 154 -4z m-293 -117 c70 -40 74
-43 80 -86 9 -60 -2 -132 -24 -148 -9 -7 -43 -27 -74 -44 l-57 -31 -53 27
c-110 55 -109 54 -106 152 l3 87 75 43 c41 23 77 42 79 42 2 0 36 -19 77 -42z
m-322 -208 c52 -40 53 -41 59 -103 3 -34 2 -66 -3 -71 -5 -5 -40 -11 -79 -14
-154 -11 -181 51 -79 179 21 27 41 49 44 49 3 0 29 -18 58 -40z m589 -8 c20
-27 44 -66 52 -86 15 -34 15 -40 0 -62 -8 -13 -27 -27 -41 -30 -27 -7 -157 1
-172 10 -4 2 -5 32 -2 66 6 59 8 64 55 106 28 24 55 43 60 44 6 0 27 -22 48
-48z m-288 -167 c51 -21 60 -28 57 -47 -4 -39 -56 -131 -84 -152 -25 -17 -30
-18 -54 -6 -28 16 -65 73 -88 136 l-14 41 61 26 c34 14 62 26 62 26 0 1 27
-10 60 -24z"/>
<path d="M1123 638 c-18 -9 -23 -22 -28 -87 -13 -135 -15 -126 29 -129 22 -2
49 -1 61 2 28 7 49 56 42 98 -2 18 -1 41 4 50 7 12 3 24 -13 41 -27 29 -64 39
-95 25z"/>
</g>
</svg>
